
<svg version="1.1" viewBox="523 362 74 70" xmlns="http://www.w3.org/2000/svg">
<clipPath id="p_1.0"><path d="m0 0l1122.5197 0l0 793.7008l-1122.5197 0l0 -793.7008z" clip-rule="nonzero"/></clipPath>
<g clip-path="url(#p_1.0)"><path fill="#000000" fill-opacity="0.0" d="m0 0l1122.5197 0l0 793.7008l-1122.5197 0z" fill-rule="evenodd"/><path fill="#000000" fill-opacity="0.0" d="m529.9599 362.2171l62.59845 0l0 69.26511l-62.59845 0z" fill-rule="evenodd"/><path fill="#f28f29" d="m546.7183 380.46237l-5.5613403 0.31600952l0.9213257 1.4039917l-3.5559692 3.2146912l-2.9893188 3.6759949l-2.3866577 4.062683l-1.7493896 4.3759766l-1.074646 4.614685l-0.3626709 4.7799377l0.2946167 4.3094177l0.88275146 4.20932l1.4519653 4.048004l2.005371 3.8266602l1.0026245 0.7040405l1.0599976 -0.63201904l0.17333984 -0.68673706l-0.333313 -0.557251l-1.8626709 -3.5534058l-1.3480225 -3.7586365l-0.8187256 -3.90802l-0.2732544 -4.0013733l0.19726562 -3.4545898l1.6173096 -6.6867065l2.9866943 -5.8545837l3.9627075 -4.7947693l2.3480225 -2.0585938l0.9053345 1.3799744l2.5066528 -4.974701z" fill-rule="evenodd"/><path fill="#f28f29" d="m559.0063 376.12378l-0.49993896 -0.50006104l-1.7346802 0l0 2.2346497l0 1.1173706l-1.1173706 0l0 -1.1173706l1.1173706 0l0 -2.2346497l-2.850708 0l-0.5013428 0.50006104l0 4.5852966l0.5013428 0.49993896l4.585388 0l0.49993896 -0.49993896l0 -1.7333374l0 -1.1173706l0 -1.7345886z" fill-rule="evenodd"/><path fill="#f28f29" d="m563.4756 379.4757l-0.49993896 -0.49996948l-0.6173096 0l-1.7347412 0l-0.49993896 0.49996948l0 1.2347412l0.49993896 0.49993896l2.3520508 0l0.49993896 -0.49993896l0 -1.2347412z" fill-rule="evenodd"/><path fill="#f28f29" d="m565.7103 376.12378l-0.50006104 -0.50006104l-0.6173096 0l-3.9679565 0l-0.5013428 0.50006104l0 1.2346497l0.5013428 0.49993896l4.585266 0l0.50006104 -0.49993896l0 -1.2346497z" fill-rule="evenodd"/><path fill="#f28f29" d="m585.81964 406.9051l-0.11199951 -1.1173706l-0.37872314 -3.7799377l-1.4066162 -4.570709l-0.31463623 -0.5866699l-0.050720215 -0.09335327l0 9.03067l0 2.2346497l-0.71203613 4.593384l-1.6533203 4.343933l-1.2999268 0l0 2.2347412l-3.0253296 3.671936l-3.689331 2.919983l-4.218689 2.0841064l-4.6133423 1.1626282l1.1693726 -1.1946411l1.2266846 -1.2533569l2.1159668 -2.4560547l1.8346558 -2.462677l1.5532837 -2.4719238l7.6467285 0l0 -2.2347412l-6.4853516 0l0.9293213 -2.2332764l0.69732666 -2.2333984l0.46533203 -2.2346497l0.2333374 -2.2359924l7.8253174 0l0 -2.2346497l-7.8253174 0l-0.23199463 -2.2226868l-0.46270752 -2.2292786l-0.6972656 -2.2386475l-0.84661865 -2.037384l0 8.727997l0 2.2346497l-0.2600708 2.2359924l-0.5186157 2.2346497l-0.77337646 2.2333984l-1.0240479 2.2332764l-1.276001 0l0 2.2347412l-1.4719849 2.1626282l-1.7053223 2.161377l-1.9373169 2.161255l-2.1679688 2.1587524l0 -8.644012l7.282593 0l0 -2.2347412l-7.282593 0l0 -8.937317l11.134705 0l0 -2.2346497l-11.134705 0l0 -8.937317l8.558594 0l1.029419 2.246704l0.77197266 2.2386475l0.5159912 2.2292786l0.25872803 2.2226868l0 -8.727997l-0.08673096 -0.20932007l7.7852783 0l0.942688 2.131958l0.7106323 2.2133484l0.47601318 2.2747498l0.23602295 2.3172607l0 -9.03067l-1.1506348 -2.1412964l-0.71069336 -1.3227234l-1.8039551 -2.2145996l0 3.537323l-7.6467285 0l-1.5519409 -2.4666748l-1.052063 -1.4119568l0 3.8786316l-7.282593 0l0 -8.643982l2.1733398 2.163971l1.9373169 2.161377l1.7026367 2.1600037l1.4692993 2.1586304l0 -3.8786316l-0.7826538 -1.0507202l-2.1160278 -2.4559631l-1.2293091 -1.258667l-1.1679688 -1.1933899l4.6133423 1.163971l4.218689 2.0839844l3.689331 2.9200134l3.0253296 3.669403l0 -3.537323l-1.1333618 -1.3920288l-3.5893555 -3.02005l-3.385315 -1.88797l-0.72003174 -0.40127563l0.8187256 -0.35339355l0.5293579 -0.80532837l0 -0.8919678l0.0013427734 -17.874664l-0.17608643 -0.86938477l-0.4786377 -0.70928955l-0.7106323 -0.4786377l-0.868042 -0.17605591l0 20.108032l-10.055969 0l0 45.512024l-1.9880371 -1.9773254l0 3.1719666l-4.6119385 -1.1626282l-4.218689 -2.0841064l-3.689331 -2.919983l-3.0266724 -3.671936l7.6466064 0l1.5560303 2.4719238l1.8347168 2.462677l2.1159058 2.4560547l2.3933716 2.447998l0 -3.1719666l-0.18127441 -0.181427l-1.9373169 -2.161255l-1.7040405 -2.161377l-1.4720459 -2.1626282l7.282715 0l0 -2.2347412l-8.558716 0l-1.0239258 -2.2332764l-0.7720947 -2.2333984l-0.5186157 -2.2346497l-0.17596436 -1.4973145l0 8.198639l-7.7840576 0l-0.9412842 -2.1306152l-0.71203613 -2.2133179l-0.47601318 -2.2746582l-0.23602295 -2.3187256l7.8240356 0l0.23468018 2.2359924l0.465271 2.2346497l0.69744873 2.2333984l0.9279785 2.2332764l0 -8.198639l-0.08673096 -0.738678l11.136047 0l0 -2.2346497l-11.136047 0l0.258667 -2.2226868l0.51605225 -2.2292786l0.7733154 -2.2386475l1.0292969 -2.246704l8.558716 0l0 -2.2346497l-7.282715 0l1.4706421 -2.1586304l1.7040405 -2.1600037l1.9373169 -2.161377l2.1707153 -2.163971l0 -3.6453552l-1.9880371 0l0 2.4519653l-2.3973389 2.452057l-2.114685 2.4559631l-1.8345947 2.462677l-1.5534058 2.4666748l-1.1612549 0l0 2.2346497l-0.9320679 2.246704l-0.65460205 2.0986023l-0.041381836 0.14004517l-0.4640503 2.2292786l-0.23327637 2.2226868l-7.8240356 0l0.22668457 -2.2226868l0.009338379 -0.094573975l0.47601318 -2.2747498l0.71203613 -2.2133484l0.9412842 -2.131958l7.7840576 0l0 -2.2346497l-6.4853516 0l3.0266724 -3.669403l3.689331 -2.9200134l4.218689 -2.0839844l4.6119385 -1.163971l0 -2.4519653l-5.83197 0l0 -17.874664l4.4680176 0l0.0013427734 8.438629l0.5013428 0.50006104l0.83325195 0l0.21868896 -0.06665039l2.9146729 -1.9440613l2.9146118 1.9440613l0.22143555 0.06665039l0.82928467 0l0.5013428 -0.50006104l0.0013427734 -1.5106506l0 -1.1946411l0 -5.7333374l4.4692993 0l0.0013427734 17.874664l0 -20.108032l-6.7040405 -0.0012817383l0 2.2346497l0 5.7333374l-1.9906616 -1.3267212l-0.48797607 0l-1.9906616 1.3267212l0 -5.7333374l4.4692993 0l0 -2.2346497l-11.171936 0l-0.86932373 0.17733765l-0.7094116 0.4786377l-0.4786377 0.70928955l-0.17730713 0.86938477l0 18.766632l0.5307007 0.80532837l0.8186035 0.35339355l-4.1052856 2.2892456l-3.5892944 3.02005l-2.937317 3.6066284l-2.2266846 4.144043l-1.4067383 4.570709l-0.49072266 4.8973083l0.50146484 4.9520264l1.4359741 4.6105957l2.2679443 4.17334l3.0013428 3.6360168l3.6400146 3.0039673l4.1746826 2.2694092l4.6105957 1.4332886l4.9467163 0.5000305l4.9119873 -0.5000305l0.026672363 0l4.609375 -1.4332886l4.1812744 -2.2694092l3.6413574 -3.0039673l3.0026245 -3.6360168l0.7854004 -1.4466248l1.2133789 -2.2347412l0.2678833 -0.49197388l1.4346924 -4.6105957l0.39074707 -3.8347473l0.11328125 -1.117279z" fill-rule="evenodd"/><path fill="#f28f29" d="m592.52234 406.90634l-0.37475586 -4.825287l-1.091919 -4.6413574l-1.7693481 -4.3879395l-2.4013672 -4.0600586l-2.9932861 -3.6639404l-3.5413208 -3.19339l-4.0480957 -2.6506042l-0.5372925 -0.30267334l-0.6812744 0.19192505l-0.6040039 1.0760193l0.19195557 0.68136597l0.55474854 0.31063843l4.01593 2.6600647l3.442627 3.2039795l2.8413696 3.6599426l2.2079468 4.033386l1.5440674 4.3172913l0.84936523 4.518738l0.12530518 4.631897l-0.63201904 4.6600647l-1.4172974 4.604004l-1.4733887 -0.7453308l0.30804443 5.5626526l4.6626587 -3.0480042l-1.4973145 -0.75601196l1.0133057 -2.8640137l0.72662354 -2.9425964l0.43603516 -2.9973755l0.1427002 -3.0333862z" fill-rule="evenodd"/></g></svg>