<svg version="1.1" viewBox="525 358 76 80" xmlns:xlink="http://www.w3.org/1999/xlink" xmlns="http://www.w3.org/2000/svg"><clipPath id="p_1.0"><path d="m0 0l1122.5197 0l0 793.7008l-1122.5197 0l0 -793.7008z" clip-rule="nonzero"/></clipPath><g clip-path="url(#p_1.0)"><path fill="#000000" fill-opacity="0.0" d="m0 0l1122.5197 0l0 793.7008l-1122.5197 0z" fill-rule="evenodd"/><path fill="#000000" fill-opacity="0.0" d="m531.3932 357.51706l59.7323 0l0 78.66666l-59.7323 0z" fill-rule="evenodd"/><path fill="#f28f29" d="m561.71716 357.51706l-0.9147339 0l-0.4119873 0.27990723l-1.8720093 4.7533875l-5.098572 0.31201172l-0.39343262 0.30392456l-0.28259277 0.8720398l0.1385498 0.47735596l3.942688 3.2493591l-1.2799683 4.945282l0.16809082 0.4680481l0.741272 0.5385742l0.49731445 0.014709473l4.3080444 -2.7453003l5.2683716 0l-0.23327637 -0.90130615l-7.7684326 0l0.74261475 -2.8694153l-0.14398193 -0.44396973l-2.2879639 -1.885376l2.9586182 -0.18130493l0.37731934 -0.2732849l1.086731 -2.758728l2.395813 0l-1.5264893 -3.876007l-0.4119873 -0.27990723z" fill-rule="evenodd"/><path fill="#f28f29" d="m566.5282 370.98636l-5.2683716 0l4.1053467 2.6159363l0.20794678 0.05871582l0.43737793 0l0.18792725 -0.05871582l0.024353027 0l0.58374023 -0.42391968l0.16796875 -0.4680481l-0.44628906 -1.7239685z" fill-rule="evenodd"/><path fill="#f28f29" d="m561.4931 368.493l-0.4666748 0l-2.499939 1.592041l5.466675 0l-2.500061 -1.592041z" fill-rule="evenodd"/><path fill="#f28f29" d="m563.65564 361.67297l-2.395813 0l1.08844 2.758728l0.37548828 0.2732849l2.9586792 0.18130493l-2.286621 1.885376l-0.1453247 0.44396973l0.7426758 2.8694153l2.3017578 0l-0.60046387 -2.3200073l3.942688 -3.2493591l0.13830566 -0.47735596l-0.28234863 -0.8720398l-0.3932495 -0.30392456l-5.098694 -0.31201172l-0.34552002 -0.8773804z" fill-rule="evenodd"/><path fill="#f28f29" d="m549.3393 427.36105l-2.342102 0l2.8718872 8.533325l0.37072754 0.2666626l0.9412842 0l0.36938477 -0.1333313l2.0828857 -3.600006l-2.5788574 0l-1.71521 -5.0666504z" fill-rule="evenodd"/><path fill="#f28f29" d="m566.4614 423.76105l-2.5895996 0l7.09729 12.266663l0.36938477 0.1333313l0.94262695 0l0.36938477 -0.2666626l1.166687 -3.4666748l-2.3521118 0l-5.003662 -8.6666565z" fill-rule="evenodd"/><path fill="#f28f29" d="m549.446 418.0277l-4.0181885 0l2.4091797 1.7333374l2.6314697 1.6000061l2.826477 1.1999817l2.9942017 0.8000183l-5.234619 9.06665l2.5788574 0l5.0144043 -8.6666565l7.8136597 0l-0.23095703 -0.3999939l2.9942017 -0.8000183l2.1983032 -0.9333191l-10.163147 0l-5.0371704 -0.5333252l-4.627075 -1.7333374l-2.1495972 -1.3333435z" fill-rule="evenodd"/><path fill="#f28f29" d="m574.44916 424.82773l-0.5466919 0.3999939l-2.437378 7.1999817l2.3521118 0l1.7052002 -5.0666504l9.574585 0l-0.5415039 -0.9333496l-2.6104126 0l-6.9452515 -1.4666443l-0.5506592 -0.1333313z" fill-rule="evenodd"/><path fill="#f28f29" d="m561.2598 375.36105l-4.8759155 0.5333252l-4.5442505 1.4666748l-4.114441 2.1333313l-3.5864258 3.0666504l-2.9603271 3.600006l-2.236023 4.0l-1.4136353 4.666687l-0.49298096 4.799988l0.4527588 4.6666565l0.012939453 0.1333313l1.3370972 4.4000244l2.1183472 4.0l2.8095093 3.5999756l-6.574646 11.3333435l0.022644043 0.5333252l0.5120239 0.666687l0.44000244 0.1333313l8.830688 -1.7333374l2.342102 0l-0.315979 -0.9333496l-8.448853 0l4.8533325 -8.399994l4.0181885 0l-1.9345703 -1.1999817l-3.4082031 -3.4666748l-2.5991821 -4.0l-1.6569824 -4.6666565l-0.5819702 -5.066681l0.5819702 -5.066681l1.6569824 -4.533325l2.5991821 -4.1333313l3.4082031 -3.4666748l4.0841675 -2.5333252l4.627075 -1.6000061l5.0371704 -0.6666565l9.934387 0l-0.51434326 -0.2666626l-4.5442505 -1.4666748l-4.8757935 -0.5333252z" fill-rule="evenodd"/><path fill="#f28f29" d="m585.097 427.36105l-9.574585 0l8.8307495 1.7333374l0.44000244 -0.1333313l0.5119629 -0.666687l0.024047852 -0.5333252l-0.23217773 -0.3999939z" fill-rule="evenodd"/><path fill="#f28f29" d="m548.0691 424.82773l-7.494629 1.5999756l8.448853 0l-0.40618896 -1.1999817l-0.54803467 -0.3999939z" fill-rule="evenodd"/><path fill="#f28f29" d="m579.68146 418.0277l-2.5897217 0l4.8533325 8.399994l2.6104126 0l-4.8740234 -8.399994z" fill-rule="evenodd"/><path fill="#f28f29" d="m563.0131 423.76105l-3.5066528 0l0.8706665 0.1333313l1.7653198 0l0.8706665 -0.1333313z" fill-rule="evenodd"/><path fill="#f28f29" d="m571.1942 377.62772l-9.934387 0l5.0371704 0.6666565l4.6273193 1.6000061l4.0844116 2.5333252l3.4085083 3.4666748l2.5993652 4.1333313l1.6572266 4.533325l0.5819092 5.066681l-0.5819092 5.066681l-1.6572266 4.6666565l-2.5993652 4.0l-3.4085083 3.4666748l-4.0844116 2.5333252l-4.6273193 1.7333374l-5.0371704 0.5333252l10.163147 0l0.6281738 -0.2666626l2.6314697 -1.6000061l2.4091187 -1.7333374l2.5897217 0l-0.9282837 -1.6000061l2.8094482 -3.5999756l2.1183472 -4.0l1.3370972 -4.4000244l0.45281982 -4.6666565l0.012878418 -0.1333313l-0.49298096 -4.799988l-1.4136963 -4.666687l-2.235962 -4.0l-2.9603271 -3.600006l-3.5864868 -3.0666504l-3.6000977 -1.8666687z" fill-rule="evenodd"/><path fill="#f28f29" d="m561.2598 381.62772l-4.795166 0.6666565l-4.312195 1.7333374l-3.6560059 2.8000183l-2.826233 3.733307l-1.822876 4.266693l-0.6461792 4.799988l0.6461792 4.799988l1.822876 4.266693l2.826233 3.733307l3.6560059 2.8000183l4.312195 1.8666687l4.795166 0.6666565l4.795105 -0.6666565l3.696167 -1.6000061l-8.491272 0l-4.998535 -0.7999878l-4.3449707 -2.266693l-3.428894 -3.4666443l-2.249939 -4.2666626l-0.80841064 -5.066681l0.80841064 -4.933319l2.249939 -4.4000244l3.428894 -3.4666443l4.3449707 -2.266693l4.998535 -0.7999878l8.443909 0l-3.6488037 -1.4666748l-4.795105 -0.6666565z" fill-rule="evenodd"/><path fill="#f28f29" d="m569.70374 383.76105l-8.443909 0l4.998413 0.7999878l4.3450317 2.266693l3.428833 3.4666443l2.25 4.4000244l0.80841064 4.933319l-0.80841064 5.066681l-2.25 4.2666626l-3.428833 3.4666443l-4.3450317 2.266693l-4.998413 0.7999878l8.491272 0l4.2719727 -3.066681l2.826294 -3.733307l1.822876 -4.266693l0.6461792 -4.799988l-0.6461792 -4.799988l-1.822876 -4.266693l-2.826294 -3.733307l-3.6559448 -2.8000183l-0.6633911 -0.2666626z" fill-rule="evenodd"/><path fill="#f28f29" d="m568.5307 408.56104l-12.040222 0l0.43066406 0.5333557l0.59729004 0.2666626l9.30542 0l1.0341187 -0.2666626l0.6727295 -0.5333557z" fill-rule="evenodd"/><path fill="#f28f29" d="m555.25714 395.36105l-3.171997 0l-0.5159912 0.2666626l-0.77197266 0.7999878l-0.21209717 0.5333557l0.011230469 3.1999817l0.013122559 3.7333374l0.011657715 3.3333435l0.16314697 0.6666565l0.44104004 0.6666565l0.6522827 0.5333557l0.796875 0.1333313l2.9279785 0l0.5040283 -0.2666626l0.3840332 -0.4000244l12.040222 0l0.16827393 -0.1333313l0.5697632 -0.7999878l0.10614014 -0.5333252l-11.305786 0l-0.047668457 -0.1333313l-5.1723022 0l-0.010925293 -3.066681l-0.011413574 -3.1999817l-0.011047363 -3.066681l4.265442 0l0.21331787 -0.5333252l1.1199951 -1.6000061l-2.9346924 0l-0.22265625 -0.1333313z" fill-rule="evenodd"/><path fill="#f28f29" d="m568.4145 397.62772l-0.5227051 0.5333252l-0.17333984 1.0666809l0.38000488 0.5333252l0.9160156 0.2666626l0.057373047 0.1333313l-0.002746582 0.5333557l-0.58258057 0.1333313l-0.89208984 0l-0.45733643 0.3999939l-0.20794678 1.0666504l0.28137207 0.5333557l0.5812988 0.1333313l0.35205078 0.2666626l-0.0040283203 0.6666565l-1.4293823 0l-0.44262695 0.3999939l-0.25732422 0.9333496l0.22131348 0.5333252l0.7080078 0.3999939l0.31469727 0.2666626l-0.002746582 0.4000244l-0.2199707 0.2666626l2.3430786 0l0.10626221 -0.5333557l0.0012817383 -0.2666626l-0.050598145 -0.2666626l-0.16271973 -0.3999939l0.7426758 -0.5333252l0.35473633 -0.8000183l0.0052490234 -1.1999817l-0.07330322 -0.2666626l-0.12670898 -0.26669312l0.76135254 -0.5333252l0.3626709 -0.7999878l0.0053100586 -1.2000122l-0.079956055 -0.3999939l-0.15332031 -0.3999939l0.5546875 -0.5333252l0.3106079 -0.666687l0 -0.2666626l-2.6853638 0l-0.83325195 -0.1333313z" fill-rule="evenodd"/><path fill="#f28f29" d="m557.0812 397.62772l-2.2294312 0l0.005554199 1.6000061l0.013244629 3.8666687l0.013244629 3.8666687l3.1376343 0l-0.14300537 -0.4000244l-0.34527588 -0.2666626l-0.42266846 -0.2666626l-0.013061523 -3.7333374l-0.012573242 -3.5999756l-0.0036621094 -1.0666809z" fill-rule="evenodd"/><path fill="#f28f29" d="m564.46173 388.56104l-3.3752441 0l0.7640381 0.26669312l0.20928955 0.1333313l0.26934814 0.3999939l0.0413208 0.2666626l-1.3639526 5.7333374l0.23724365 0.5333252l0.57073975 0.8000183l0.51464844 0.1333313l7.195984 0l0.17871094 0.1333313l0 0.3999939l-0.045410156 0.1333313l-0.083984375 0.1333313l-0.122680664 0.1333313l2.4813232 0l0 -0.3999939l-0.20996094 -1.0666809l-0.58013916 -0.9333191l-0.8753662 -0.5333252l-1.0958862 -0.1333313l-5.6932983 0l0.9973755 -4.266693l0.20135498 -0.7999878l-0.13470459 -0.9333191l-0.08074951 -0.13336182z" fill-rule="evenodd"/><path fill="#f28f29" d="m562.12775 386.56104l-1.2648315 0l-1.1473999 0.4000244l-0.9050293 0.7999878l-0.5372925 1.2000122l-1.0467529 4.2666626l-0.070617676 0.1333313l-1.2133789 1.7333374l-0.2546997 0.3999939l2.7267456 0l0.84002686 -1.2000122l1.3106079 -5.333313l0.5213623 -0.4000244l3.3752441 0l-0.807251 -1.333313l-0.70007324 -0.5333252l-0.82666016 -0.13336182z" fill-rule="evenodd"/><path fill="#f28f29" d="m540.3678 362.82773l-0.9160156 0l-0.41064453 0.2666626l-1.8720093 4.799988l-5.1000366 0.2666626l-0.39331055 0.3999939l-0.28259277 0.8000183l0.1385498 0.5333252l3.942688 3.2000122l-1.2799683 4.933319l0.16796875 0.5333252l0.74139404 0.5333557l0.49731445 0l4.3079224 -2.8000183l5.265442 0l-0.20733643 -0.7999878l-7.791443 0l0.7426758 -2.9333496l-0.1439209 -0.3999939l-2.2879639 -1.8666687l2.9586182 -0.2666626l0.37872314 -0.2666626l1.0852051 -2.7999878l2.3774414 0l-1.5079956 -3.8666687l-0.41070557 -0.2666626z" fill-rule="evenodd"/><path fill="#f28f29" d="m583.0678 362.82773l-0.9160156 0l-0.41070557 0.2666626l-1.8720093 4.799988l-5.0999756 0.2666626l-0.39337158 0.3999939l-0.28259277 0.8000183l0.14001465 0.5333252l3.942566 3.2000122l-1.2799683 4.933319l0.16809082 0.5333252l0.7399292 0.5333557l0.49731445 0l4.309387 -2.8000183l5.264038 0l-0.20733643 -0.7999878l-7.790039 0l0.741333 -2.9333496l-0.14404297 -0.3999939l-2.2879639 -1.8666687l2.9586182 -0.2666626l0.37872314 -0.2666626l1.0853271 -2.7999878l2.3775635 0l-1.506897 -3.8666687l-0.4119873 -0.2666626z" fill-rule="evenodd"/><path fill="#f28f29" d="m545.1745 376.29437l-5.265442 0l3.9227295 2.5333557l0.18267822 0.1333313l0.8760376 0l0.5652466 -0.4000244l0.16809082 -0.5333252l-0.44934082 -1.7333374z" fill-rule="evenodd"/><path fill="#f28f29" d="m587.8745 376.29437l-5.264038 0l4.1053467 2.666687l0.87597656 0l0.56536865 -0.4000244l0.16662598 -0.5333252l-0.4492798 -1.7333374z" fill-rule="evenodd"/><path fill="#f28f29" d="m540.32513 373.89438l-0.83203125 0l-2.3173828 1.6000061l5.466675 0l-2.3172607 -1.6000061z" fill-rule="evenodd"/><path fill="#f28f29" d="m542.2865 366.96106l-2.3774414 0l1.086731 2.7999878l0.37731934 0.2666626l2.9586792 0.2666626l-2.286621 1.8666687l-0.14404297 0.3999939l0.741272 2.9333496l2.324768 0l-0.6220703 -2.399994l3.9414062 -3.2000122l0.13995361 -0.5333252l-0.28259277 -0.8000183l-0.39343262 -0.3999939l-5.0999146 -0.2666626l-0.36401367 -0.9333191z" fill-rule="evenodd"/><path fill="#f28f29" d="m583.0264 373.89438l-0.8319702 0l-2.3173218 1.6000061l5.466675 0l-2.3173828 -1.6000061z" fill-rule="evenodd"/><path fill="#f28f29" d="m584.9867 366.96106l-2.3775635 0l1.0866089 2.7999878l0.3774414 0.2666626l2.9586182 0.2666626l-1.9520264 1.6000061l-0.33465576 0.2666626l-0.14398193 0.3999939l0.7426758 2.9333496l2.3233643 0l-0.6220093 -2.399994l3.942627 -3.2000122l0.13873291 -0.5333252l-0.28277588 -0.8000183l-0.3932495 -0.3999939l-5.1000366 -0.2666626l-0.36376953 -0.9333191z" fill-rule="evenodd"/></g></svg>