<svg version="1.1" viewBox="523 362 80 75" xmlns="http://www.w3.org/2000/svg">
<clipPath id="p_1.0"><path d="m0 0l1122.5197 0l0 793.7008l-1122.5197 0l0 -793.7008z" clip-rule="nonzero"/></clipPath><g clip-path="url(#p_1.0)"><path fill="#000000" fill-opacity="0.0" d="m0 0l1122.5197 0l0 793.7008l-1122.5197 0z" fill-rule="evenodd"/><path fill="#000000" fill-opacity="0.0" d="m523.85986 362.2504l74.79785 0l0 69.19946l-74.79785 0z" fill-rule="evenodd"/><path fill="#f28f29" d="m545.55695 422.6503l-9.201172 0l2.862915 0.1333313l3.1229248 1.0666504l3.2787476 1.6000061l3.3300781 1.8666687l2.822998 1.4666748l2.7166138 1.4666443l2.571289 0.9333496l2.3864136 0.2666626l1.1413574 0l0.54663086 -0.1333313l8.396545 -2.2666626l-11.135559 0l-2.5092773 -0.9333496l-2.8067017 -1.333313l-2.9302979 -1.6000061l-3.513916 -2.0l-1.0795898 -0.5333252z" fill-rule="evenodd"/><path fill="#f28f29" d="m597.4743 413.18362l-4.300537 0l1.296875 0.5333252l1.0131226 0.8000183l0.6107178 1.1999817l0.08630371 1.4666748l-0.43969727 1.2000122l-0.88568115 1.0666504l-1.251648 0.6666565l-33.16931 8.800018l-2.0377197 0.1333313l11.135559 0l24.695557 -6.6666565l2.112732 -1.0666809l1.4942017 -1.7333374l0.7407837 -2.1333313l-0.13916016 -2.1333313l-0.008605957 -0.1333313l-0.9534912 -2.0z" fill-rule="evenodd"/><path fill="#f28f29" d="m532.3731 396.38364l-4.515991 0l-1.5552979 0.2666626l-1.2703247 0.7999878l-0.85687256 1.3333435l-0.3147583 1.6000061l0 22.133331l0.3147583 1.5999756l0.85687256 1.2000122l1.2703247 0.9333191l1.5552979 0.26669312l4.5026855 0l1.5394897 -0.26669312l1.2630005 -0.7999878l0.8607178 -1.3333435l-9.041931 0l-0.70928955 -0.6666565l0 -24.0l0.70928955 -0.6666565l9.013123 0l-0.14068604 -0.3999939l-0.8817749 -1.0666809l-1.1936646 -0.6666565l-1.4049683 -0.2666626z" fill-rule="evenodd"/><path fill="#f28f29" d="m535.9942 398.78363l-2.7584229 0l0.70928955 0.6666565l0 24.0l-0.70928955 0.6666565l2.7872314 0l0.33276367 -1.4666443l9.201172 0l-2.428955 -1.2000122l-3.444336 -1.0666504l-3.321228 -0.13336182l0 -18.0l6.0443726 -1.7333069l3.8416748 -0.26669312l5.400757 0l-0.618042 -0.5333252l-14.708801 0l-0.32818604 -0.9333191z" fill-rule="evenodd"/><path fill="#f28f29" d="m550.5265 409.85028l-0.73205566 0.2666626l-0.6239624 1.0666809l0.18792725 0.7999878l0.5466919 0.2666626l10.886719 6.266693l0.6454468 0.3999939l2.0998535 0.3999939l0.8652954 0l0.8533325 -0.2666626l0.7720947 -0.3999939l0.11328125 0l8.310425 -1.7333374l-11.287537 0l-1.1655884 -0.3999939l-10.886597 -6.4000244l-0.58532715 -0.2666626z" fill-rule="evenodd"/><path fill="#f28f29" d="m551.64923 400.25027l-5.400757 0l2.3656006 0.8000183l1.616394 1.1999817l0.5667114 0.4000244l0.6159668 0.5333252l0.6572876 0.3999939l13.038635 7.466675l0.92181396 0.9333191l0.5189209 1.0666809l0.07989502 1.0666504l-0.39526367 1.2000122l-0.815979 0.9333191l-1.0689697 0.5333557l-1.1854858 0.1333313l11.287537 0l5.753479 -1.2000122l-11.482605 0l0.33343506 -2.0l-2.7454224 -4.6666565l-13.038635 -7.600006l-0.5239868 -0.2666626l-0.49066162 -0.3999939l-0.45336914 -0.3999939l-0.15454102 -0.13336182z" fill-rule="evenodd"/><path fill="#f28f29" d="m593.5909 410.78363l-2.3737793 0.1333313l-22.49469 4.799988l11.482605 0l11.506775 -2.399994l1.4619751 -0.1333313l4.300537 0l-0.06347656 -0.1333313l-1.6838989 -1.4666748l-2.1360474 -0.7999878z" fill-rule="evenodd"/><path fill="#f28f29" d="m573.2338 401.18362l-6.38208 0l1.0005493 0.5333252l1.0297241 0.3999939l2.1350708 0.8000183l0 2.0l3.4771729 2.399994l3.1710205 0l3.4771729 -2.399994l-6.3910522 0l-1.3223267 -0.1333313l0 -3.3333435l-0.19525146 -0.2666626z" fill-rule="evenodd"/><path fill="#f28f29" d="m530.1011 401.0503l-0.78222656 0.2666626l-0.6376953 0.3999939l-0.42877197 0.666687l-0.15527344 0.6666565l0.16003418 0.7999878l0.43249512 0.666687l0.6403198 0.3999939l0.7832031 0.2666626l0.78234863 -0.2666626l0.6382446 -0.3999939l0.4293213 -0.666687l0.15533447 -0.7999878l-0.16052246 -0.6666565l-0.4310913 -0.666687l-0.63757324 -0.3999939l-0.788147 -0.2666626z" fill-rule="evenodd"/><path fill="#f28f29" d="m585.94385 398.38364l-0.62145996 0l-0.4772339 0.2666626l-1.220581 0.6666565l-1.2746582 0.6666565l-2.6820679 0.8000183l-0.5506592 0.1333313l-0.3920288 0.5333252l0 3.3333435l-1.3215942 0.1333313l3.7388916 0l0 -2.0l2.1362915 -0.8000183l1.0297852 -0.3999939l1.0005493 -0.5333252l6.2841797 0l0.4348755 -0.3999939l-3.7043457 0l-2.3799438 -2.399994z" fill-rule="evenodd"/><path fill="#f28f29" d="m564.0051 366.38364l-0.7681885 0l-0.7104492 0.3999939l-1.2350464 0.9333191l-1.1605225 1.2000122l-1.081665 1.0666504l-0.9987793 1.3333435l-0.36016846 0.6666565l-0.08251953 0.8000183l0.1895752 0.6666565l0.4557495 0.6666565l1.442627 1.4666748l-0.52630615 0.9333496l-0.4640503 1.0666504l-0.4005127 1.0666809l-0.3357544 1.0666504l-2.0413208 0l-2.3478394 3.4666748l-0.050842285 1.4666748l-0.004699707 0.1333313l0.04168701 1.1999817l0.0045776367 0.1333313l0.009277344 0.26669312l2.3478394 3.4666443l2.0413208 0l0.3357544 1.0666809l0.4005127 1.0666504l0.4640503 1.0666809l0.52630615 0.9333191l-1.442627 1.4666748l-0.45562744 0.6666565l-0.18920898 0.8000183l0.08251953 0.6666565l2.441162 3.2000122l3.873169 2.5333252l0.7496338 -0.2666626l0.65301514 -0.3999939l1.4439697 -1.4666748l6.38208 0l-0.19537354 -0.2666626l-0.5506592 -0.1333313l-8.654602 0l-1.0276489 -0.8000183l-0.9685669 -0.9333191l-0.9069214 -0.9333496l-0.84228516 -1.0666504l2.3773193 -2.399994l0.06939697 -0.666687l-2.0826416 -4.2666626l-0.48944092 -1.8666687l-0.48919678 -0.3999939l-3.362732 0l-0.1305542 -1.3333435l-0.04345703 -1.333313l0.03479004 -1.0666809l0.008666992 -0.2666626l0.1305542 -1.3333435l3.362732 0l0.48919678 -0.3999939l1.565918 -4.533325l1.0061646 -1.6000061l-0.06939697 -0.6666565l-2.3773193 -2.399994l0.84228516 -0.9333496l0.9069214 -1.0666504l0.9685669 -0.9333496l1.0276489 -0.7999878l8.654602 0l0.54803467 -0.1333313l0.260437 -0.2666626l-6.444519 0l-1.4439697 -1.4666748l-0.6534424 -0.3999939l-0.74920654 -0.1333313z" fill-rule="evenodd"/><path fill="#f28f29" d="m591.59326 401.18362l-6.2841797 0l1.442749 1.4666748l0.6536255 0.3999939l0.7496948 0.2666626l0.7686157 -0.1333313l0.71069336 -0.3999939l1.2340698 -0.9333496l0.72473145 -0.6666565z" fill-rule="evenodd"/><path fill="#f28f29" d="m566.8332 398.38364l-0.62268066 0l-2.3773193 2.399994l8.654602 0l-2.682129 -0.8000183l-1.2746582 -0.6666565l-1.220581 -0.6666565l-0.4772339 -0.2666626z" fill-rule="evenodd"/><path fill="#f28f29" d="m591.8974 368.78363l-3.5736084 0l1.026001 0.7999878l0.96777344 0.9333496l0.90667725 1.0666504l0.8422241 0.9333496l-2.3773193 2.399994l-0.06933594 0.6666565l0.3026123 0.3999939l0.7034912 1.2000122l0.59436035 1.3333435l0.4821167 1.333313l0.36669922 1.3333435l0.12408447 0.5333252l0.4892578 0.3999939l3.362732 0l0.12976074 1.3333435l0.03881836 1.2000122l0.0043945312 0.1333313l-0.03894043 1.1999817l-0.004272461 0.1333313l-0.12976074 1.3333435l-3.3640137 0l-0.48797607 0.3999939l-0.12408447 0.5333557l-0.3665161 1.333313l-0.48181152 1.3333435l-0.5942993 1.3333435l-0.7040405 1.1999817l-0.3026123 0.3999939l0.06933594 0.666687l2.378662 2.399994l-0.8425293 1.0666504l-0.9069824 0.9333496l-0.9682617 0.9333191l-1.0262451 0.8000183l3.7043457 0l1.0810547 -1.2000122l0.9986572 -1.1999817l0.3595581 -0.8000183l0.08251953 -0.6666565l-0.18920898 -0.8000183l-0.45562744 -0.6666565l-1.4439697 -1.4666748l0.52630615 -0.9333191l0.4642334 -1.0666809l0.40093994 -1.0666504l0.33648682 -1.0666809l2.0427246 0l2.3457031 -3.4666443l0.055236816 -1.6000061l-0.036865234 -1.0666809l-0.009094238 -0.2666626l-2.3549805 -3.7333374l-2.0440063 0l-0.336792 -1.0666504l-0.4013672 -1.0666809l-0.46466064 -1.0666504l-0.52648926 -0.9333496l1.4439697 -1.4666748l0.4533081 -0.6666565l0.18890381 -0.6666565l-0.08105469 -0.8000183l-0.35577393 -0.6666565l-0.9996338 -1.3333435l-1.0819702 -1.0666504l-0.12884521 -0.1333313z" fill-rule="evenodd"/><path fill="#f28f29" d="m546.5731 397.85028l-2.0421143 0l-2.364685 0.2666626l-2.723999 0.666687l-3.119934 0.9333191l14.708801 0l-0.15454102 -0.1333313l-1.1211548 -0.7999878l-1.4047241 -0.5333557l-1.7776489 -0.3999939z" fill-rule="evenodd"/><path fill="#f28f29" d="m576.0784 372.78363l-4.701233 0.9333191l-3.8389282 2.5333252l-2.5881348 3.8666687l-0.9489746 4.666687l0.9529419 4.6666565l2.588684 3.8666687l3.8371582 2.6666565l4.6984863 0.9333496l4.7005615 -0.9333496l2.111206 -1.4666443l-6.8117676 0l-3.7619019 -0.8000183l-3.0722046 -2.1333313l-2.0715332 -3.0666504l-0.75964355 -3.7333374l0.76068115 -3.7333374l2.0714111 -3.066681l3.0717163 -2.1333313l3.7614746 -0.6666565l6.9228516 0l-2.22229 -1.4666748l-4.7005615 -0.9333191z" fill-rule="evenodd"/><path fill="#f28f29" d="m583.0013 375.18362l-6.9228516 0l3.7616577 0.6666565l3.0718384 2.1333313l2.071045 3.066681l0.7595215 3.7333374l-0.7595215 3.7333374l-2.071045 3.0666504l-3.0718384 2.1333313l-3.7616577 0.8000183l6.8117676 0l1.7272339 -1.2000122l2.5880127 -3.8666687l0.9489746 -4.6666565l-0.9489746 -4.666687l-2.5880127 -3.8666687l-1.6161499 -1.0666504z" fill-rule="evenodd"/><path fill="#f28f29" d="m572.29846 383.71695l-0.76397705 0l-0.942688 0.9333496l0 0.7999878l0.4706421 0.5333252l3.0733032 3.066681l0.30670166 0.1333313l0.6946411 0l0.31469727 -0.2666626l0.21868896 -0.1333313l2.3284912 -2.666687l-3.2924805 0l-2.40802 -2.399994z" fill-rule="evenodd"/><path fill="#f28f29" d="m580.5718 380.38364l-0.7640381 0l-5.1012573 5.733307l3.2924805 0l3.1434937 -3.5999756l0.36260986 -0.5333557l-0.04522705 -0.6666565l-0.8880615 -0.9333191z" fill-rule="evenodd"/><path fill="#f28f29" d="m572.4878 368.78363l-8.654602 0l2.3773193 2.399994l0.62268066 0.1333313l0.4772339 -0.3999939l1.220581 -0.666687l1.2746582 -0.5333252l1.3213501 -0.5333252l1.3607788 -0.3999939z" fill-rule="evenodd"/><path fill="#f28f29" d="m581.14246 364.6503l-3.7388916 0l1.3215942 0.1333313l0 3.4666443l0.3920288 0.4000244l0.5518799 0.1333313l1.3598022 0.3999939l1.3206177 0.5333252l1.2740479 0.5333252l1.2202148 0.666687l0.477417 0.3999939l0.62390137 -0.1333313l2.3787231 -2.399994l3.5736084 0l-0.38671875 -0.3999939l-6.2042236 0l-0.9998169 -0.5333557l-2.0849 -0.7999878l-1.0792847 -0.3999939l0 -2.0z" fill-rule="evenodd"/><path fill="#f28f29" d="m577.668 362.2504l-3.1711426 0l-2.3370972 0.39990234l-0.60198975 0.5333252l-0.3959961 0.6666565l-0.13934326 0.8000183l0 2.0l-1.0810547 0.3999939l-2.0880737 0.7999878l-1.0015869 0.5333557l6.444519 0l0.13018799 -0.13336182l0.0026245117 -3.4666443l1.3223267 -0.1333313l6.3910522 0l-0.13928223 -0.8000183l-0.39605713 -0.6666565l-0.6020508 -0.5333252l-2.3370361 -0.39990234z" fill-rule="evenodd"/><path fill="#f28f29" d="m588.92114 366.38364l-0.76867676 0l-0.7496338 0.1333313l-0.65374756 0.3999939l-1.442627 1.4666748l6.2042236 0l-0.64453125 -0.666687l-1.234314 -0.9333191l-0.71069336 -0.3999939z" fill-rule="evenodd"/></g></svg>