<svg version="1.1" viewBox="525 358 76 80" xmlns:xlink="http://www.w3.org/1999/xlink" xmlns="http://www.w3.org/2000/svg">
<g><path fill="#000000" fill-opacity="0.0" d="m0 0l1122.5197 0l0 793.7008l-1122.5197 0z" fill-rule="evenodd"/><path fill="#000000" fill-opacity="0.0" d="m527.4266 360.28378l67.666626 0l0 73.131226l-67.666626 0z" fill-rule="evenodd"/><path fill="#f28f29" d="m585.1325 429.19705l-5.5180054 0l7.1879883 4.087982l0.4039917 0.10803223l1.1427002 0l0.70269775 -0.35464478l0.48260498 -0.6173096l0.4746704 -0.61209106l0.20135498 -0.8039856l-0.06677246 -0.42266846l-2.5772095 0l-2.434021 -1.385315z" fill-rule="evenodd"/><path fill="#f28f29" d="m570.67316 418.36777l-3.6306152 0l3.4559326 3.6226807l-1.4279175 9.014587l2.9574585 2.3521423l0.81311035 -0.27874756l4.1813354 -2.3960266l-5.2959595 0l1.442627 -9.104034l-0.2692871 -0.89868164l-0.592041 -0.62667847l-1.6346436 -1.6852417z" fill-rule="evenodd"/><path fill="#f28f29" d="m580.09186 426.33038l-0.89971924 0l-0.7189331 0.40673828l-6.746704 3.945282l5.2959595 0l2.592041 -1.4853516l5.5180054 0l-5.0406494 -2.8666687z" fill-rule="evenodd"/><path fill="#f28f29" d="m582.45404 404.1638l-2.859497 0l3.7773438 8.28125l0.38562012 0.30267334l0.3293457 0.25332642l0.8173828 0.13018799l7.5942383 1.1004944l-6.1150513 6.4479675l-0.27001953 0.89868164l0.13970947 0.8813782l1.3134155 8.12262l2.5772095 0l-1.3786011 -8.5399475l5.5213623 -5.822693l0.43273926 -0.60302734l0.25628662 -0.6911316l0.05682373 -0.5951843l0.009460449 -0.09866333l0.0045166016 -0.04650879l-9.739868 -3.7694702l-2.852417 -6.251953z" fill-rule="evenodd"/><path fill="#f28f29" d="m542.8985 377.81973l-2.5640259 0l0.0014038086 1.1186523l0.8026123 4.901825l0.004272461 0.026031494l1.7332764 4.556946l2.6725464 3.8043213l3.6245117 2.6696167l-0.6453247 1.3374023l-3.2719116 2.6505127l-4.369873 1.1681824l-3.2008667 0.7772217l-0.03112793 0l-1.6483154 0.51486206l-2.8712158 1.425293l-2.8760986 2.600525l-1.6611938 4.0406494l-0.3838501 2.781311l-0.35266113 2.3921204l-0.26715088 1.7341614l-0.16693115 1.0430603l0.10394287 0.41333008l0.48669434 0.62927246l0.35864258 0.18133545l38.258667 0l0.21459961 -0.09335327l0.19342041 -0.12524414l3.6306152 0l-2.4805298 -2.557373l-37.919434 0l0.22424316 -1.480011l0.17718506 -1.1991577l0.21191406 -1.4861755l0.2506714 -1.836029l0.47235107 -1.6140747l0.8579712 -1.3360596l1.109375 -1.0783081l1.2269897 -0.84085083l2.5665894 0l0 -1.152008l0.75823975 -0.20285034l4.0043945 -0.9810791l2.6599731 0l-0.1638794 -0.649353l0.5907593 -0.1904602l0.8275757 -0.29541016l0.81396484 -0.3142395l0.550354 -0.24661255l4.0876465 0l-1.9196777 -1.6772766l0.6439209 -0.7614746l0.5640869 -0.8347473l0.4668579 -0.87979126l0.012268066 -0.02319336l0.3840332 -0.9541321l8.388794 0l-0.4185791 -0.833374l2.2471313 -1.6332703l-7.421814 0l-4.805176 -1.2559814l-3.5108643 -3.2996216l-2.2398682 -4.6407166l-0.99212646 -5.2796936l0 -1.0147095z" fill-rule="evenodd"/><path fill="#f28f29" d="m537.3705 404.93973l-2.5665894 0l0 10.8706665l2.5665894 0l0 -10.8706665z" fill-rule="evenodd"/><path fill="#f28f29" d="m544.7931 402.6038l-2.6599731 0l3.3337402 13.206604l2.659668 0l-3.322754 -13.164215l-0.010681152 -0.042388916z" fill-rule="evenodd"/><path fill="#f28f29" d="m571.0395 400.93973l-9.559692 0l0.42663574 0.22930908l1.2067261 0.4586792l0.15203857 0.046722412l-3.5679932 14.135956l2.6610107 0l3.3936157 -13.449341l9.136902 0l-0.16455078 -0.15686035l-0.10571289 -0.07116699l-2.3204956 -0.83203125l-1.2584839 -0.3612671z" fill-rule="evenodd"/><path fill="#f28f29" d="m574.88873 402.36105l-9.136902 0l1.1385498 0.28512573l2.2995605 0.6000061l2.423523 0.6903076l1.7250366 0.61657715l2.2506714 2.3532715l-1.5733032 3.4773865l-7.632019 1.2000122l-0.67645264 0.212677l-1.5858154 2.533966l0.13293457 0.7880554l0.44482422 0.69195557l3.4932861 0l-1.4354858 -1.480011l8.449341 -1.3293457l0.70666504 -0.55599976l0.36535645 -0.7999878l3.262207 -7.360016l-2.7648315 0l-1.1752319 -1.206604l-0.6165161 -0.6263428l-0.09539795 -0.091033936z" fill-rule="evenodd"/><path fill="#f28f29" d="m551.4995 400.9077l-4.0876465 0l6.499939 5.6760254l0.28533936 0.104034424l0.57196045 0l0.28674316 -0.104034424l3.494995 -3.0706787l-4.069702 0l-2.9816284 -2.6053467z" fill-rule="evenodd"/><path fill="#f28f29" d="m579.6412 401.4211l-2.8652954 2.863922l2.7648315 0l0.053833008 -0.12124634l2.859497 0l-0.5609131 -1.2294006l-0.39611816 -0.630249l-0.5283203 -0.4764099l-0.6291504 -0.30142212l-0.69836426 -0.10519409z" fill-rule="evenodd"/><path fill="#f28f29" d="m560.0398 395.7771l-2.8625488 0l0.38946533 0.9541321l0.009460449 0.02319336l0.491333 0.91244507l0.5777588 0.8422241l0.65856934 0.76660156l-4.822693 4.2373657l4.069702 0l2.928955 -2.5733337l9.559692 0l-2.2454834 -0.64450073l-5.209778 -1.4101868l-1.2862549 -0.6116638l-1.111084 -0.8902893l-0.90563965 -1.1253357l-0.24145508 -0.48065186z" fill-rule="evenodd"/><path fill="#f28f29" d="m557.17725 395.7771l-5.461731 0l0.6508789 0.12872314l0.6725464 0.09744263l0.6975708 0.06161499l0.710022 0.021514893l0.7119751 -0.021514893l0.6913452 -0.06161499l0.6722412 -0.09744263l0.65515137 -0.12872314z" fill-rule="evenodd"/><path fill="#f28f29" d="m568.5598 377.81973l-2.5640259 0l0.0014038086 0.90930176l-0.99383545 5.340576l-2.0883179 4.3535767l-0.16668701 0.33166504l-3.50354 3.2996216l-4.798279 1.2559814l7.421814 0l1.4191895 -1.0316162l2.7034302 -3.8289795l1.7432861 -4.583618l0.010009766 -0.026031494l0.8153076 -5.005768l2.4414062E-4 -1.0147095z" fill-rule="evenodd"/><path fill="#f28f29" d="m571.6237 375.0438l-34.411865 0l-0.57470703 0.6213074l0 1.5333252l0.57470703 0.6213074l34.409485 0l0.5733032 -0.6213074l0.001159668 -1.5333252l-0.5720825 -0.6213074z" fill-rule="evenodd"/><path fill="#f28f29" d="m558.7918 360.28378l-8.719971 0l-0.57336426 0.6213074l-0.0026245117 1.7120361l-0.024902344 0l-5.185364 2.18161l-3.8344727 4.998749l-0.9592285 5.2463074l2.579956 0l0.15881348 -1.6773987l0.0025024414 -0.026641846l0.5777588 -2.442749l2.8967896 -3.78656l3.76062 -1.5960083l2.5876465 0l0.0052490234 -2.454712l8.684204 0l-1.3815308 -0.44259644l0.0012817383 -1.7120361l-0.57336426 -0.6213074z" fill-rule="evenodd"/><path fill="#f28f29" d="m552.05597 365.51443l-2.5668335 0l-0.006286621 3.2554321l-0.012268066 6.273926l2.5652466 0l0.013305664 -6.273926l0.0068359375 -3.2554321z" fill-rule="evenodd"/><path fill="#f28f29" d="m560.7454 363.05972l-3.9456177 0l0 11.98407l2.5653687 0l0 -9.529358l5.9055786 0l-0.73498535 -0.71569824l-2.8094482 -1.4203491l0.01361084 0l-0.99450684 -0.31866455z" fill-rule="evenodd"/><path fill="#f28f29" d="m565.27075 365.51443l-5.9055786 0l1.6251831 0.5239868l2.1204834 1.0720215l1.7035522 1.6594238l1.1794434 2.1125488l0.008178711 0.014587402l0.5689087 2.442749l0.006286621 0.026641846l0.15466309 1.6773987l2.5773926 0l-0.17877197 -1.954773l-0.76239014 -3.2728577l-1.574585 -2.8188782l-1.5227661 -1.4828491z" fill-rule="evenodd"/></g></svg>